<?xml version="1.0" encoding="UTF-8" standalone="no"?>
<svg
   xmlns:dc="http://purl.org/dc/elements/1.1/"
   xmlns:svg="http://www.w3.org/2000/svg"
   xmlns="http://www.w3.org/2000/svg"
   version="1.1"
   width="480"
   height="250"
   viewBox="0 0 480 250">
  <path
     fill="#004aad"
     d="m 214.32,239.82 c -10.96,-2.31 -20.3,-5.38 -29.27,-9.64 -31.48,-14.93 -55.83,-45.91 -63.17,-80.37 -2.51,-11.82 -2.51,-36.26 0,-48 5.2,-24.23 19.73,-48.89 37.43,-63.53 24.98,-20.66 50.22,-29.46 80.69,-28.15 29.26,1.26 55.55,12.47 76.11,32.42 23.76,23.06 36.95,56.78 35.07,89.61 -0.47,8.38 -0.34,10.74 0.61,10.38 0.67,-0.25 11.35,-3.7 23.73,-7.65 12.37,-3.95 24.59,-7.86 27.16,-8.68 l 4.66,-1.49 0.7,-5.19 c 1.43,-10.53 7.31,-19 16.23,-23.37 12.05,-5.91 27.61,-2.77 35.81,7.21 20.05,24.47 -6.64,59.07 -35.18,45.57 -3.56,-1.68 -7.46,-4.51 -9.39,-6.81 l -3.3,-3.93 -32.77,10.47 -32.77,10.47 -2.2,6.09 c -2.87,7.94 -7.82,17.75 -12.33,24.44 -1.98,2.94 -3.6,5.53 -3.6,5.75 0,0.21 9.45,0.39 21.01,0.39 h 21.01 l 2.32,-5.26 c 4.99,-11.29 17.36,-18.58 29.63,-17.47 24.16,2.19 35.63,31.39 19.22,48.93 -6.4,6.85 -11.03,9.03 -20.35,9.58 -6.63,0.39 -8.37,0.12 -13.15,-2.06 -6.67,-3.05 -12.88,-9.21 -15.36,-15.24 l -1.83,-4.46 h -28.06 -28.06 l -2.88,3.01 c -3.81,3.97 -17.24,12.89 -25.98,17.26 -21.1,10.52 -49.63,14.4 -71.72,9.74 z m -38.5,-87.22 c 2.2,-0.66 5.51,-2.62 7.36,-4.36 2.88,-2.71 3.35,-3.83 3.35,-7.84 0,-9.13 -4.18,-12.9 -17.23,-15.55 -6,-1.21 -7.96,-2.65 -5.64,-4.12 2.35,-1.48 6.49,-0.99 9.15,1.09 3.16,2.48 3.85,2.48 8.78,-0.03 3.4,-1.73 3.83,-2.3 2.96,-3.93 -2.71,-5.06 -12.35,-8.65 -20.39,-7.58 -10.21,1.35 -15.9,6.62 -15.9,14.72 0,7.29 4.28,10.84 15.57,12.93 8.47,1.56 9.84,2.41 7.19,4.48 -2.64,2.05 -8.85,1.25 -12.79,-1.65 l -2.98,-2.2 -4.36,2.11 c -2.38,1.15 -4.34,2.62 -4.34,3.25 0,2.09 6.85,7.64 10.7,8.66 5.35,1.41 13.85,1.42 18.57,0.01 z m 83.49,-1.63 3.08,-2.19 0.63,2.01 c 0.56,1.76 1.49,2.01 7.55,2.01 h 6.91 l 0.61,-2.44 c 0.33,-1.34 0.45,-8.9 0.26,-16.79 -0.37,-15.8 -1.19,-18.33 -6.82,-21.24 -4.34,-2.24 -13.65,-2.93 -20.5,-1.51 -4.44,0.92 -6.79,2.08 -9.3,4.59 -4.71,4.71 -4,6.57 3.13,8.15 l 5.82,1.29 3.05,-2.57 c 3.3,-2.78 6.47,-2.92 8.08,-0.35 1.88,3 0.1,4.88 -4.62,4.88 -10.59,0 -20.68,7.33 -20.68,15.04 0,3.73 3.02,8.71 6.32,10.39 4.34,2.22 12.41,1.59 16.44,-1.27 z m -5.01,-8.26 c -3.95,-2.28 -0.97,-6.85 5.5,-8.45 l 2.75,-0.67 v 3.48 c 0,4.82 -4.42,7.85 -8.25,5.64 z m -46.75,-4.7 c 0.53,-15.37 0.95,-16.49 6,-15.96 l 2.5,0.25 0.27,15.25 0.27,15.25 h 7.98 7.98 v -17.04 c 0,-19.32 -0.61,-21.58 -6.58,-24.42 -4.55,-2.16 -9.28,-1.53 -14.48,1.9 l -3.79,2.51 -0.31,-2.22 -0.31,-2.22 -7.41,-0.29 c -5.25,-0.21 -7.65,0.08 -8.23,1 -1,1.57 -1.14,39.17 -0.14,40.16 0.38,0.38 4.1,0.57 8.25,0.41 l 7.5,-0.29 z m 92.39,13.2 c 0.91,-2.39 0.69,-37.72 -0.24,-39.21 -0.58,-0.91 -2.98,-1.21 -8.23,-1 l -7.41,0.29 -0.27,19.47 c -0.14,10.7 -0.05,20.04 0.21,20.75 0.77,2.03 15.15,1.75 15.94,-0.3 z m 22,0 c 0.33,-0.86 0.6,-13.6 0.6,-28.3 0,-19.44 -0.32,-27.03 -1.2,-27.90 -0.67,-0.67 -3.88,-1.2 -7.3,-1.2 -3.41,0 -6.62,0.52 -7.3,1.2 -0.87,0.87 -1.2,8.66 -1.2,28.82 0,15.19 0.3,27.93 0.66,28.3 0.36,0.36 3.91,0.66 7.89,0.66 5.66,0 7.35,-0.34 7.83,-1.58 z m -22,-45 c 1.13,-2.96 0.62,-10.14 -0.8,-11.33 -0.86,-0.71 -4.06,-1.05 -8.25,-0.87 l -6.84,0.29 -0.3,5.38 c -0.45,7.99 -0.33,8.11 8.16,8.11 5.84,0 7.55,-0.33 8.03,-1.58 z"
     />
</svg>
